<svg xmlns="http://www.w3.org/2000/svg" xmlns:xlink="http://www.w3.org/1999/xlink" contentStyleType="text/css" height="907px" preserveAspectRatio="none" style="width:720px;height:907px;" version="1.1" viewBox="0 0 720 907" width="720px" zoomAndPan="magnify"><defs/><g><!--class PaymentStatus--><g id="elem_PaymentStatus"><rect codeLine="7" fill="#424856" height="113.1875" id="PaymentStatus" rx="2.5" ry="2.5" style="stroke:#ABB2BF;stroke-width:0.5;" width="138.5313" x="548.52" y="787.31"/><ellipse cx="563.52" cy="803.31" fill="#EB937F" rx="11" ry="11" style="stroke:#181818;stroke-width:1.0;"/><path d="M567.6294,809.31 L559.9106,809.31 L559.9106,796.9194 L567.6294,796.9194 L567.6294,799.0756 L562.3638,799.0756 L562.3638,801.7475 L567.1294,801.7475 L567.1294,803.9038 L562.3638,803.9038 L562.3638,807.1538 L567.6294,807.1538 L567.6294,809.31 Z " fill="#ABB2BF"/><text fill="#ABB2BF" font-family="sans-serif" font-size="14" lengthAdjust="spacing" textLength="106.5313" x="577.52" y="808.1567">PaymentStatus</text><line style="stroke:#ABB2BF;stroke-width:0.5;" x1="549.52" x2="686.0513" y1="819.31" y2="819.31"/><text fill="#ABB2BF" font-family="sans-serif" font-size="14" lengthAdjust="spacing" textLength="63.9912" x="554.52" y="836.3051">PENDING</text><text fill="#ABB2BF" font-family="sans-serif" font-size="14" lengthAdjust="spacing" textLength="32.9287" x="554.52" y="852.602">PAID</text><text fill="#ABB2BF" font-family="sans-serif" font-size="14" lengthAdjust="spacing" textLength="75.8721" x="554.52" y="868.8989">CANCELED</text><text fill="#ABB2BF" font-family="sans-serif" font-size="14" lengthAdjust="spacing" textLength="49.1846" x="554.52" y="885.1957">FAILED</text><line style="stroke:#ABB2BF;stroke-width:0.5;" x1="549.52" x2="686.0513" y1="892.4975" y2="892.4975"/></g><!--class OrderStatus--><g id="elem_OrderStatus"><rect codeLine="14" fill="#424856" height="113.1875" id="OrderStatus" rx="2.5" ry="2.5" style="stroke:#ABB2BF;stroke-width:0.5;" width="116.6426" x="309.47" y="787.31"/><ellipse cx="324.47" cy="803.31" fill="#EB937F" rx="11" ry="11" style="stroke:#181818;stroke-width:1.0;"/><path d="M328.5794,809.31 L320.8606,809.31 L320.8606,796.9194 L328.5794,796.9194 L328.5794,799.0756 L323.3138,799.0756 L323.3138,801.7475 L328.0794,801.7475 L328.0794,803.9038 L323.3138,803.9038 L323.3138,807.1538 L328.5794,807.1538 L328.5794,809.31 Z " fill="#ABB2BF"/><text fill="#ABB2BF" font-family="sans-serif" font-size="14" lengthAdjust="spacing" textLength="84.6426" x="338.47" y="808.1567">OrderStatus</text><line style="stroke:#ABB2BF;stroke-width:0.5;" x1="310.47" x2="425.1126" y1="819.31" y2="819.31"/><text fill="#ABB2BF" font-family="sans-serif" font-size="14" lengthAdjust="spacing" textLength="63.9912" x="315.47" y="836.3051">PENDING</text><text fill="#ABB2BF" font-family="sans-serif" font-size="14" lengthAdjust="spacing" textLength="75.2363" x="315.47" y="852.602">RESERVED</text><text fill="#ABB2BF" font-family="sans-serif" font-size="14" lengthAdjust="spacing" textLength="86.1396" x="315.47" y="868.8989">COMPLETED</text><text fill="#ABB2BF" font-family="sans-serif" font-size="14" lengthAdjust="spacing" textLength="69.501" x="315.47" y="885.1957">REJECTED</text><line style="stroke:#ABB2BF;stroke-width:0.5;" x1="310.47" x2="425.1126" y1="892.4975" y2="892.4975"/></g><!--class User--><g id="elem_User"><rect codeLine="21" fill="#424856" height="210.9688" id="User" rx="2.5" ry="2.5" style="stroke:#ABB2BF;stroke-width:0.5;" width="178.8105" x="278.38" y="245.37"/><ellipse cx="347.5802" cy="261.37" fill="#ADD1B2" rx="11" ry="11" style="stroke:#181818;stroke-width:1.0;"/><path d="M351.6896,267.37 L343.9708,267.37 L343.9708,254.9794 L351.6896,254.9794 L351.6896,257.1356 L346.4239,257.1356 L346.4239,259.8075 L351.1896,259.8075 L351.1896,261.9638 L346.4239,261.9638 L346.4239,265.2138 L351.6896,265.2138 L351.6896,267.37 Z " fill="#ABB2BF"/><text fill="#ABB2BF" font-family="sans-serif" font-size="14" lengthAdjust="spacing" textLength="31.9102" x="368.0802" y="266.2167">User</text><line style="stroke:#ABB2BF;stroke-width:0.5;" x1="279.38" x2="456.1905" y1="277.37" y2="277.37"/><ellipse cx="289.38" cy="291.0184" fill="#000000" rx="3" ry="3" style="stroke:#000000;stroke-width:1.0;"/><text fill="#ABB2BF" font-family="sans-serif" font-size="14" lengthAdjust="spacing" textLength="63.7246" x="298.38" y="294.3651">id: String</text><ellipse cx="289.38" cy="307.3153" fill="#000000" rx="3" ry="3" style="stroke:#000000;stroke-width:1.0;"/><text fill="#ABB2BF" font-family="sans-serif" font-size="14" lengthAdjust="spacing" textLength="89.5576" x="298.38" y="310.662">email: String</text><ellipse cx="289.38" cy="323.6122" fill="#000000" rx="3" ry="3" style="stroke:#000000;stroke-width:1.0;"/><text fill="#ABB2BF" font-family="sans-serif" font-size="14" lengthAdjust="spacing" textLength="117.6602" x="298.38" y="326.9589">password: String</text><ellipse cx="289.38" cy="339.9091" fill="#000000" rx="3" ry="3" style="stroke:#000000;stroke-width:1.0;"/><text fill="#ABB2BF" font-family="sans-serif" font-size="14" lengthAdjust="spacing" textLength="90.6514" x="298.38" y="343.2557">name: String</text><ellipse cx="289.38" cy="356.2059" fill="#000000" rx="3" ry="3" style="stroke:#000000;stroke-width:1.0;"/><text fill="#ABB2BF" font-family="sans-serif" font-size="14" lengthAdjust="spacing" textLength="146.0225" x="298.38" y="359.5526">createdAt: DateTime</text><ellipse cx="289.38" cy="372.5028" fill="#000000" rx="3" ry="3" style="stroke:#000000;stroke-width:1.0;"/><text fill="#ABB2BF" font-family="sans-serif" font-size="14" lengthAdjust="spacing" textLength="150.6025" x="298.38" y="375.8495">updatedAt: DateTime</text><text fill="#ABB2BF" font-family="sans-serif" font-size="14" lengthAdjust="spacing" textLength="152.8105" x="298.38" y="392.1464">deletedAt: DateTime?</text><ellipse cx="289.38" cy="405.0966" fill="#000000" rx="3" ry="3" style="stroke:#000000;stroke-width:1.0;"/><text fill="#ABB2BF" font-family="sans-serif" font-size="14" lengthAdjust="spacing" textLength="100.1533" x="298.38" y="408.4432">Order: Order[]</text><text fill="#ABB2BF" font-family="sans-serif" font-size="14" lengthAdjust="spacing" textLength="78.1895" x="298.38" y="424.7401">Role: Role?</text><text fill="#ABB2BF" font-family="sans-serif" font-size="14" lengthAdjust="spacing" textLength="98.2188" x="298.38" y="441.037">roleId: String?</text><line style="stroke:#ABB2BF;stroke-width:0.5;" x1="279.38" x2="456.1905" y1="448.3388" y2="448.3388"/></g><!--class Role--><g id="elem_Role"><rect codeLine="34" fill="#424856" height="145.7813" id="Role" rx="2.5" ry="2.5" style="stroke:#ABB2BF;stroke-width:0.5;" width="178.8105" x="278.38" y="23.3"/><ellipse cx="348.1373" cy="39.3" fill="#ADD1B2" rx="11" ry="11" style="stroke:#181818;stroke-width:1.0;"/><path d="M352.2467,45.3 L344.5279,45.3 L344.5279,32.9094 L352.2467,32.9094 L352.2467,35.0656 L346.9811,35.0656 L346.9811,37.7375 L351.7467,37.7375 L351.7467,39.8937 L346.9811,39.8937 L346.9811,43.1437 L352.2467,43.1437 L352.2467,45.3 Z " fill="#ABB2BF"/><text fill="#ABB2BF" font-family="sans-serif" font-size="14" lengthAdjust="spacing" textLength="30.7959" x="368.6373" y="44.1467">Role</text><line style="stroke:#ABB2BF;stroke-width:0.5;" x1="279.38" x2="456.1905" y1="55.3" y2="55.3"/><ellipse cx="289.38" cy="68.9484" fill="#000000" rx="3" ry="3" style="stroke:#000000;stroke-width:1.0;"/><text fill="#ABB2BF" font-family="sans-serif" font-size="14" lengthAdjust="spacing" textLength="63.7246" x="298.38" y="72.2951">id: String</text><ellipse cx="289.38" cy="85.2453" fill="#000000" rx="3" ry="3" style="stroke:#000000;stroke-width:1.0;"/><text fill="#ABB2BF" font-family="sans-serif" font-size="14" lengthAdjust="spacing" textLength="90.6514" x="298.38" y="88.592">name: String</text><ellipse cx="289.38" cy="101.5422" fill="#000000" rx="3" ry="3" style="stroke:#000000;stroke-width:1.0;"/><text fill="#ABB2BF" font-family="sans-serif" font-size="14" lengthAdjust="spacing" textLength="146.0225" x="298.38" y="104.8889">createdAt: DateTime</text><ellipse cx="289.38" cy="117.8391" fill="#000000" rx="3" ry="3" style="stroke:#000000;stroke-width:1.0;"/><text fill="#ABB2BF" font-family="sans-serif" font-size="14" lengthAdjust="spacing" textLength="150.6025" x="298.38" y="121.1857">updatedAt: DateTime</text><text fill="#ABB2BF" font-family="sans-serif" font-size="14" lengthAdjust="spacing" textLength="152.8105" x="298.38" y="137.4826">deletedAt: DateTime?</text><ellipse cx="289.38" cy="150.4328" fill="#000000" rx="3" ry="3" style="stroke:#000000;stroke-width:1.0;"/><text fill="#ABB2BF" font-family="sans-serif" font-size="14" lengthAdjust="spacing" textLength="83.9111" x="298.38" y="153.7795">User: User[]</text><line style="stroke:#ABB2BF;stroke-width:0.5;" x1="279.38" x2="456.1905" y1="161.0812" y2="161.0812"/></g><!--class Product--><g id="elem_Product"><rect codeLine="43" fill="#424856" height="194.6719" id="Product" rx="2.5" ry="2.5" style="stroke:#ABB2BF;stroke-width:0.5;" width="233.5732" x="7" y="253.52"/><ellipse cx="92.6816" cy="269.52" fill="#ADD1B2" rx="11" ry="11" style="stroke:#181818;stroke-width:1.0;"/><path d="M96.791,275.52 L89.0723,275.52 L89.0723,263.1294 L96.791,263.1294 L96.791,265.2856 L91.5254,265.2856 L91.5254,267.9575 L96.291,267.9575 L96.291,270.1138 L91.5254,270.1138 L91.5254,273.3638 L96.791,273.3638 L96.791,275.52 Z " fill="#ABB2BF"/><text fill="#ABB2BF" font-family="sans-serif" font-size="14" lengthAdjust="spacing" textLength="53.71" x="113.1816" y="274.3667">Product</text><line style="stroke:#ABB2BF;stroke-width:0.5;" x1="8" x2="239.5732" y1="285.52" y2="285.52"/><ellipse cx="18" cy="299.1684" fill="#000000" rx="3" ry="3" style="stroke:#000000;stroke-width:1.0;"/><text fill="#ABB2BF" font-family="sans-serif" font-size="14" lengthAdjust="spacing" textLength="63.7246" x="27" y="302.5151">id: String</text><ellipse cx="18" cy="315.4653" fill="#000000" rx="3" ry="3" style="stroke:#000000;stroke-width:1.0;"/><text fill="#ABB2BF" font-family="sans-serif" font-size="14" lengthAdjust="spacing" textLength="90.6514" x="27" y="318.812">name: String</text><ellipse cx="18" cy="331.7622" fill="#000000" rx="3" ry="3" style="stroke:#000000;stroke-width:1.0;"/><text fill="#ABB2BF" font-family="sans-serif" font-size="14" lengthAdjust="spacing" textLength="128.7891" x="27" y="335.1089">description: String</text><ellipse cx="18" cy="348.0591" fill="#000000" rx="3" ry="3" style="stroke:#000000;stroke-width:1.0;"/><text fill="#ABB2BF" font-family="sans-serif" font-size="14" lengthAdjust="spacing" textLength="78.5859" x="27" y="351.4057">price: Float</text><ellipse cx="18" cy="364.3559" fill="#000000" rx="3" ry="3" style="stroke:#000000;stroke-width:1.0;"/><text fill="#ABB2BF" font-family="sans-serif" font-size="14" lengthAdjust="spacing" textLength="146.0225" x="27" y="367.7026">createdAt: DateTime</text><ellipse cx="18" cy="380.6528" fill="#000000" rx="3" ry="3" style="stroke:#000000;stroke-width:1.0;"/><text fill="#ABB2BF" font-family="sans-serif" font-size="14" lengthAdjust="spacing" textLength="150.6025" x="27" y="383.9995">updatedAt: DateTime</text><text fill="#ABB2BF" font-family="sans-serif" font-size="14" lengthAdjust="spacing" textLength="152.8105" x="27" y="400.2964">deletedAt: DateTime?</text><ellipse cx="18" cy="413.2466" fill="#000000" rx="3" ry="3" style="stroke:#000000;stroke-width:1.0;"/><text fill="#ABB2BF" font-family="sans-serif" font-size="14" lengthAdjust="spacing" textLength="207.5732" x="27" y="416.5932">OrderProduct: OrderProduct[]</text><ellipse cx="18" cy="429.5434" fill="#000000" rx="3" ry="3" style="stroke:#000000;stroke-width:1.0;"/><text fill="#ABB2BF" font-family="sans-serif" font-size="14" lengthAdjust="spacing" textLength="97.583" x="27" y="432.8901">Stock: Stock[]</text><line style="stroke:#ABB2BF;stroke-width:0.5;" x1="8" x2="239.5732" y1="440.1919" y2="440.1919"/></g><!--class Order--><g id="elem_Order"><rect codeLine="55" fill="#424856" height="210.9688" id="Order" rx="2.5" ry="2.5" style="stroke:#ABB2BF;stroke-width:0.5;" width="238.4131" x="248.58" y="516.34"/><ellipse cx="343.5209" cy="532.34" fill="#ADD1B2" rx="11" ry="11" style="stroke:#181818;stroke-width:1.0;"/><path d="M347.6303,538.34 L339.9115,538.34 L339.9115,525.9494 L347.6303,525.9494 L347.6303,528.1056 L342.3647,528.1056 L342.3647,530.7775 L347.1303,530.7775 L347.1303,532.9337 L342.3647,532.9337 L342.3647,536.1837 L347.6303,536.1837 L347.6303,538.34 Z " fill="#ABB2BF"/><text fill="#ABB2BF" font-family="sans-serif" font-size="14" lengthAdjust="spacing" textLength="40.0313" x="364.0209" y="537.1867">Order</text><line style="stroke:#ABB2BF;stroke-width:0.5;" x1="249.58" x2="485.9931" y1="548.34" y2="548.34"/><ellipse cx="259.58" cy="561.9884" fill="#000000" rx="3" ry="3" style="stroke:#000000;stroke-width:1.0;"/><text fill="#ABB2BF" font-family="sans-serif" font-size="14" lengthAdjust="spacing" textLength="63.7246" x="268.58" y="565.3351">id: String</text><ellipse cx="259.58" cy="578.2853" fill="#000000" rx="3" ry="3" style="stroke:#000000;stroke-width:1.0;"/><text fill="#ABB2BF" font-family="sans-serif" font-size="14" lengthAdjust="spacing" textLength="94.5" x="268.58" y="581.632">userId: String</text><ellipse cx="259.58" cy="594.5822" fill="#000000" rx="3" ry="3" style="stroke:#000000;stroke-width:1.0;"/><text fill="#ABB2BF" font-family="sans-serif" font-size="14" lengthAdjust="spacing" textLength="71.6133" x="268.58" y="597.9289">user: User</text><ellipse cx="259.58" cy="610.8791" fill="#000000" rx="3" ry="3" style="stroke:#000000;stroke-width:1.0;"/><text fill="#ABB2BF" font-family="sans-serif" font-size="14" lengthAdjust="spacing" textLength="212.4131" x="268.58" y="614.2257">orderProducts: OrderProduct[]</text><ellipse cx="259.58" cy="627.1759" fill="#000000" rx="3" ry="3" style="stroke:#000000;stroke-width:1.0;"/><text fill="#ABB2BF" font-family="sans-serif" font-size="14" lengthAdjust="spacing" textLength="136.8281" x="268.58" y="630.5226">status: OrderStatus</text><text fill="#ABB2BF" font-family="sans-serif" font-size="14" lengthAdjust="spacing" textLength="162.7568" x="268.58" y="646.8195">statusMessage: String?</text><ellipse cx="259.58" cy="659.7697" fill="#000000" rx="3" ry="3" style="stroke:#000000;stroke-width:1.0;"/><text fill="#ABB2BF" font-family="sans-serif" font-size="14" lengthAdjust="spacing" textLength="146.0225" x="268.58" y="663.1164">createdAt: DateTime</text><ellipse cx="259.58" cy="676.0666" fill="#000000" rx="3" ry="3" style="stroke:#000000;stroke-width:1.0;"/><text fill="#ABB2BF" font-family="sans-serif" font-size="14" lengthAdjust="spacing" textLength="150.6025" x="268.58" y="679.4132">updatedAt: DateTime</text><text fill="#ABB2BF" font-family="sans-serif" font-size="14" lengthAdjust="spacing" textLength="152.8105" x="268.58" y="695.7101">deletedAt: DateTime?</text><ellipse cx="259.58" cy="708.6603" fill="#000000" rx="3" ry="3" style="stroke:#000000;stroke-width:1.0;"/><text fill="#ABB2BF" font-family="sans-serif" font-size="14" lengthAdjust="spacing" textLength="143.9307" x="268.58" y="712.007">Payment: Payment[]</text><line style="stroke:#ABB2BF;stroke-width:0.5;" x1="249.58" x2="485.9931" y1="719.3087" y2="719.3087"/></g><!--class OrderProduct--><g id="elem_OrderProduct"><rect codeLine="68" fill="#424856" height="194.6719" id="OrderProduct" rx="2.5" ry="2.5" style="stroke:#ABB2BF;stroke-width:0.5;" width="178.8105" x="34.38" y="524.49"/><ellipse cx="73.2612" cy="540.49" fill="#ADD1B2" rx="11" ry="11" style="stroke:#181818;stroke-width:1.0;"/><path d="M77.3706,546.49 L69.6518,546.49 L69.6518,534.0994 L77.3706,534.0994 L77.3706,536.2556 L72.105,536.2556 L72.105,538.9275 L76.8706,538.9275 L76.8706,541.0838 L72.105,541.0838 L72.105,544.3338 L77.3706,544.3338 L77.3706,546.49 Z " fill="#ABB2BF"/><text fill="#ABB2BF" font-family="sans-serif" font-size="14" lengthAdjust="spacing" textLength="93.7412" x="92.5681" y="545.3367">OrderProduct</text><line style="stroke:#ABB2BF;stroke-width:0.5;" x1="35.38" x2="212.1905" y1="556.49" y2="556.49"/><ellipse cx="45.38" cy="570.1384" fill="#000000" rx="3" ry="3" style="stroke:#000000;stroke-width:1.0;"/><text fill="#ABB2BF" font-family="sans-serif" font-size="14" lengthAdjust="spacing" textLength="63.7246" x="54.38" y="573.4851">id: String</text><ellipse cx="45.38" cy="586.4353" fill="#000000" rx="3" ry="3" style="stroke:#000000;stroke-width:1.0;"/><text fill="#ABB2BF" font-family="sans-serif" font-size="14" lengthAdjust="spacing" textLength="101.541" x="54.38" y="589.782">orderId: String</text><ellipse cx="45.38" cy="602.7322" fill="#000000" rx="3" ry="3" style="stroke:#000000;stroke-width:1.0;"/><text fill="#ABB2BF" font-family="sans-serif" font-size="14" lengthAdjust="spacing" textLength="86.7754" x="54.38" y="606.0789">order: Order</text><ellipse cx="45.38" cy="619.0291" fill="#000000" rx="3" ry="3" style="stroke:#000000;stroke-width:1.0;"/><text fill="#ABB2BF" font-family="sans-serif" font-size="14" lengthAdjust="spacing" textLength="118.1182" x="54.38" y="622.3757">productId: String</text><ellipse cx="45.38" cy="635.3259" fill="#000000" rx="3" ry="3" style="stroke:#000000;stroke-width:1.0;"/><text fill="#ABB2BF" font-family="sans-serif" font-size="14" lengthAdjust="spacing" textLength="117.0313" x="54.38" y="638.6726">product: Product</text><ellipse cx="45.38" cy="651.6228" fill="#000000" rx="3" ry="3" style="stroke:#000000;stroke-width:1.0;"/><text fill="#ABB2BF" font-family="sans-serif" font-size="14" lengthAdjust="spacing" textLength="86.0234" x="54.38" y="654.9695">quantity: Int</text><ellipse cx="45.38" cy="667.9197" fill="#000000" rx="3" ry="3" style="stroke:#000000;stroke-width:1.0;"/><text fill="#ABB2BF" font-family="sans-serif" font-size="14" lengthAdjust="spacing" textLength="146.0225" x="54.38" y="671.2664">createdAt: DateTime</text><ellipse cx="45.38" cy="684.2166" fill="#000000" rx="3" ry="3" style="stroke:#000000;stroke-width:1.0;"/><text fill="#ABB2BF" font-family="sans-serif" font-size="14" lengthAdjust="spacing" textLength="150.6025" x="54.38" y="687.5632">updatedAt: DateTime</text><text fill="#ABB2BF" font-family="sans-serif" font-size="14" lengthAdjust="spacing" textLength="152.8105" x="54.38" y="703.8601">deletedAt: DateTime?</text><line style="stroke:#ABB2BF;stroke-width:0.5;" x1="35.38" x2="212.1905" y1="711.1619" y2="711.1619"/></g><!--class Stock--><g id="elem_Stock"><rect codeLine="80" fill="#424856" height="178.375" id="Stock" rx="2.5" ry="2.5" style="stroke:#ABB2BF;stroke-width:0.5;" width="178.8105" x="34.38" y="7"/><ellipse cx="100.1622" cy="23" fill="#ADD1B2" rx="11" ry="11" style="stroke:#181818;stroke-width:1.0;"/><path d="M104.2716,29 L96.5529,29 L96.5529,16.6094 L104.2716,16.6094 L104.2716,18.7656 L99.006,18.7656 L99.006,21.4375 L103.7716,21.4375 L103.7716,23.5938 L99.006,23.5938 L99.006,26.8438 L104.2716,26.8438 L104.2716,29 Z " fill="#ABB2BF"/><text fill="#ABB2BF" font-family="sans-serif" font-size="14" lengthAdjust="spacing" textLength="38.7461" x="120.6622" y="27.8467">Stock</text><line style="stroke:#ABB2BF;stroke-width:0.5;" x1="35.38" x2="212.1905" y1="39" y2="39"/><ellipse cx="45.38" cy="52.6484" fill="#000000" rx="3" ry="3" style="stroke:#000000;stroke-width:1.0;"/><text fill="#ABB2BF" font-family="sans-serif" font-size="14" lengthAdjust="spacing" textLength="63.7246" x="54.38" y="55.9951">id: String</text><ellipse cx="45.38" cy="68.9453" fill="#000000" rx="3" ry="3" style="stroke:#000000;stroke-width:1.0;"/><text fill="#ABB2BF" font-family="sans-serif" font-size="14" lengthAdjust="spacing" textLength="118.1182" x="54.38" y="72.292">productId: String</text><ellipse cx="45.38" cy="85.2422" fill="#000000" rx="3" ry="3" style="stroke:#000000;stroke-width:1.0;"/><text fill="#ABB2BF" font-family="sans-serif" font-size="14" lengthAdjust="spacing" textLength="117.0313" x="54.38" y="88.5889">product: Product</text><ellipse cx="45.38" cy="101.5391" fill="#000000" rx="3" ry="3" style="stroke:#000000;stroke-width:1.0;"/><text fill="#ABB2BF" font-family="sans-serif" font-size="14" lengthAdjust="spacing" textLength="90.8496" x="54.38" y="104.8857">available: Int</text><ellipse cx="45.38" cy="117.8359" fill="#000000" rx="3" ry="3" style="stroke:#000000;stroke-width:1.0;"/><text fill="#ABB2BF" font-family="sans-serif" font-size="14" lengthAdjust="spacing" textLength="89.4756" x="54.38" y="121.1826">reserved: Int</text><ellipse cx="45.38" cy="134.1328" fill="#000000" rx="3" ry="3" style="stroke:#000000;stroke-width:1.0;"/><text fill="#ABB2BF" font-family="sans-serif" font-size="14" lengthAdjust="spacing" textLength="146.0225" x="54.38" y="137.4795">createdAt: DateTime</text><ellipse cx="45.38" cy="150.4297" fill="#000000" rx="3" ry="3" style="stroke:#000000;stroke-width:1.0;"/><text fill="#ABB2BF" font-family="sans-serif" font-size="14" lengthAdjust="spacing" textLength="150.6025" x="54.38" y="153.7764">updatedAt: DateTime</text><text fill="#ABB2BF" font-family="sans-serif" font-size="14" lengthAdjust="spacing" textLength="152.8105" x="54.38" y="170.0732">deletedAt: DateTime?</text><line style="stroke:#ABB2BF;stroke-width:0.5;" x1="35.38" x2="212.1905" y1="177.375" y2="177.375"/></g><!--class Payment--><g id="elem_Payment"><rect codeLine="91" fill="#424856" height="194.6719" id="Payment" rx="2.5" ry="2.5" style="stroke:#ABB2BF;stroke-width:0.5;" width="191.8193" x="521.88" y="524.49"/><ellipse cx="582.5797" cy="540.49" fill="#ADD1B2" rx="11" ry="11" style="stroke:#181818;stroke-width:1.0;"/><path d="M586.6891,546.49 L578.9703,546.49 L578.9703,534.0994 L586.6891,534.0994 L586.6891,536.2556 L581.4235,536.2556 L581.4235,538.9275 L586.1891,538.9275 L586.1891,541.0838 L581.4235,541.0838 L581.4235,544.3338 L586.6891,544.3338 L586.6891,546.49 Z " fill="#ABB2BF"/><text fill="#ABB2BF" font-family="sans-serif" font-size="14" lengthAdjust="spacing" textLength="61.9199" x="603.0797" y="545.3367">Payment</text><line style="stroke:#ABB2BF;stroke-width:0.5;" x1="522.88" x2="712.6993" y1="556.49" y2="556.49"/><ellipse cx="532.88" cy="570.1384" fill="#000000" rx="3" ry="3" style="stroke:#000000;stroke-width:1.0;"/><text fill="#ABB2BF" font-family="sans-serif" font-size="14" lengthAdjust="spacing" textLength="63.7246" x="541.88" y="573.4851">id: String</text><ellipse cx="532.88" cy="586.4353" fill="#000000" rx="3" ry="3" style="stroke:#000000;stroke-width:1.0;"/><text fill="#ABB2BF" font-family="sans-serif" font-size="14" lengthAdjust="spacing" textLength="101.541" x="541.88" y="589.782">orderId: String</text><ellipse cx="532.88" cy="602.7322" fill="#000000" rx="3" ry="3" style="stroke:#000000;stroke-width:1.0;"/><text fill="#ABB2BF" font-family="sans-serif" font-size="14" lengthAdjust="spacing" textLength="86.7754" x="541.88" y="606.0789">order: Order</text><ellipse cx="532.88" cy="619.0291" fill="#000000" rx="3" ry="3" style="stroke:#000000;stroke-width:1.0;"/><text fill="#ABB2BF" font-family="sans-serif" font-size="14" lengthAdjust="spacing" textLength="158.7168" x="541.88" y="622.3757">status: PaymentStatus</text><text fill="#ABB2BF" font-family="sans-serif" font-size="14" lengthAdjust="spacing" textLength="162.7568" x="541.88" y="638.6726">statusMessage: String?</text><ellipse cx="532.88" cy="651.6228" fill="#000000" rx="3" ry="3" style="stroke:#000000;stroke-width:1.0;"/><text fill="#ABB2BF" font-family="sans-serif" font-size="14" lengthAdjust="spacing" textLength="165.8193" x="541.88" y="654.9695">paymentMethod: String</text><ellipse cx="532.88" cy="667.9197" fill="#000000" rx="3" ry="3" style="stroke:#000000;stroke-width:1.0;"/><text fill="#ABB2BF" font-family="sans-serif" font-size="14" lengthAdjust="spacing" textLength="146.0225" x="541.88" y="671.2664">createdAt: DateTime</text><ellipse cx="532.88" cy="684.2166" fill="#000000" rx="3" ry="3" style="stroke:#000000;stroke-width:1.0;"/><text fill="#ABB2BF" font-family="sans-serif" font-size="14" lengthAdjust="spacing" textLength="150.6025" x="541.88" y="687.5632">updatedAt: DateTime</text><text fill="#ABB2BF" font-family="sans-serif" font-size="14" lengthAdjust="spacing" textLength="152.8105" x="541.88" y="703.8601">deletedAt: DateTime?</text><line style="stroke:#ABB2BF;stroke-width:0.5;" x1="522.88" x2="712.6993" y1="711.1619" y2="711.1619"/></g><!--link User to Order--><g id="link_User_Order"><path codeLine="103" d="M367.79,464.79 C367.79,484.23 367.79,488.53 367.79,507.97 " fill="none" id="User-Order" style="stroke:#61AFEF;stroke-width:1.0;stroke-dasharray:7.0,7.0;"/><line style="stroke:#61AFEF;stroke-width:1.0;" x1="363.79" x2="371.79" y1="460.79" y2="460.79"/><line style="stroke:#61AFEF;stroke-width:1.0;" x1="363.79" x2="371.79" y1="463.79" y2="463.79"/><line style="stroke:#61AFEF;stroke-width:1.0;" x1="367.79" x2="367.79" y1="464.79" y2="456.79"/><line style="stroke:#61AFEF;stroke-width:1.0;" x1="367.79" x2="373.79" y1="507.97" y2="515.97"/><line style="stroke:#61AFEF;stroke-width:1.0;" x1="367.79" x2="361.79" y1="507.97" y2="515.97"/><line style="stroke:#61AFEF;stroke-width:1.0;" x1="367.79" x2="367.79" y1="507.97" y2="515.97"/><line style="stroke:#61AFEF;stroke-width:1.0;" x1="371.79" x2="363.79" y1="505.97" y2="505.97"/></g><!--link Role to User--><g id="link_Role_User"><path codeLine="104" d="M367.79,184.51 C367.79,208.02 367.79,211.55 367.79,236.91 " fill="none" id="Role-User" style="stroke:#61AFEF;stroke-width:1.0;stroke-dasharray:7.0,7.0;"/><line style="stroke:#61AFEF;stroke-width:1.0;" x1="367.79" x2="367.79" y1="180.51" y2="169.51"/><ellipse cx="367.79" cy="180.51" fill="none" rx="4" ry="4" style="stroke:#61AFEF;stroke-width:1.0;"/><line style="stroke:#61AFEF;stroke-width:1.0;" x1="363.79" x2="371.79" y1="173.51" y2="173.51"/><line style="stroke:#61AFEF;stroke-width:1.0;" x1="367.79" x2="373.79" y1="236.91" y2="244.91"/><line style="stroke:#61AFEF;stroke-width:1.0;" x1="367.79" x2="361.79" y1="236.91" y2="244.91"/><line style="stroke:#61AFEF;stroke-width:1.0;" x1="367.79" x2="367.79" y1="236.91" y2="244.91"/><line style="stroke:#61AFEF;stroke-width:1.0;" x1="371.79" x2="363.79" y1="234.91" y2="234.91"/></g><!--link Product to OrderProduct--><g id="link_Product_OrderProduct"><path codeLine="105" d="M123.79,456.69 C123.79,481.24 123.79,491.59 123.79,516.15 " fill="none" id="Product-OrderProduct" style="stroke:#61AFEF;stroke-width:1.0;stroke-dasharray:7.0,7.0;"/><line style="stroke:#61AFEF;stroke-width:1.0;" x1="119.79" x2="127.79" y1="452.69" y2="452.69"/><line style="stroke:#61AFEF;stroke-width:1.0;" x1="119.79" x2="127.79" y1="455.69" y2="455.69"/><line style="stroke:#61AFEF;stroke-width:1.0;" x1="123.79" x2="123.79" y1="456.69" y2="448.69"/><line style="stroke:#61AFEF;stroke-width:1.0;" x1="123.79" x2="129.79" y1="516.15" y2="524.15"/><line style="stroke:#61AFEF;stroke-width:1.0;" x1="123.79" x2="117.79" y1="516.15" y2="524.15"/><line style="stroke:#61AFEF;stroke-width:1.0;" x1="123.79" x2="123.79" y1="516.15" y2="524.15"/><line style="stroke:#61AFEF;stroke-width:1.0;" x1="127.79" x2="119.79" y1="514.15" y2="514.15"/></g><!--link Stock to Product--><g id="link_Stock_Product"><path codeLine="106" d="M123.79,193.62 C123.79,215.55 123.79,223.12 123.79,245.41 " fill="none" id="Stock-Product" style="stroke:#61AFEF;stroke-width:1.0;stroke-dasharray:7.0,7.0;"/><line style="stroke:#61AFEF;stroke-width:1.0;" x1="123.79" x2="117.79" y1="193.62" y2="185.62"/><line style="stroke:#61AFEF;stroke-width:1.0;" x1="123.79" x2="129.79" y1="193.62" y2="185.62"/><line style="stroke:#61AFEF;stroke-width:1.0;" x1="123.79" x2="123.79" y1="193.62" y2="185.62"/><line style="stroke:#61AFEF;stroke-width:1.0;" x1="119.79" x2="127.79" y1="195.62" y2="195.62"/><line style="stroke:#61AFEF;stroke-width:1.0;" x1="127.79" x2="119.79" y1="249.41" y2="249.41"/><line style="stroke:#61AFEF;stroke-width:1.0;" x1="127.79" x2="119.79" y1="246.41" y2="246.41"/><line style="stroke:#61AFEF;stroke-width:1.0;" x1="123.79" x2="123.79" y1="245.41" y2="253.41"/></g><!--link Order to Payment--><g id="link_Order_Payment"><path codeLine="107" d="M495.3,622.5 C506.84,622.5 502.46,622.5 513.74,622.5 " fill="none" id="Order-Payment" style="stroke:#61AFEF;stroke-width:1.0;stroke-dasharray:7.0,7.0;"/><line style="stroke:#61AFEF;stroke-width:1.0;" x1="491.3" x2="491.3" y1="626.5" y2="618.5"/><line style="stroke:#61AFEF;stroke-width:1.0;" x1="494.3" x2="494.3" y1="626.5" y2="618.5"/><line style="stroke:#61AFEF;stroke-width:1.0;" x1="495.3" x2="487.3" y1="622.5" y2="622.5"/><line style="stroke:#61AFEF;stroke-width:1.0;" x1="513.74" x2="521.74" y1="622.5" y2="616.5"/><line style="stroke:#61AFEF;stroke-width:1.0;" x1="513.74" x2="521.74" y1="622.5" y2="628.5"/><line style="stroke:#61AFEF;stroke-width:1.0;" x1="513.74" x2="521.74" y1="622.5" y2="622.5"/><line style="stroke:#61AFEF;stroke-width:1.0;" x1="511.74" x2="511.74" y1="618.5" y2="626.5"/></g><!--link Payment to PaymentStatus--><g id="link_Payment_PaymentStatus"><path codeLine="108" d="M617.79,727.56 C617.79,750.6 617.79,758.42 617.79,778.96 " fill="none" id="Payment-PaymentStatus" style="stroke:#61AFEF;stroke-width:1.0;stroke-dasharray:7.0,7.0;"/><line style="stroke:#61AFEF;stroke-width:1.0;" x1="613.79" x2="621.79" y1="723.56" y2="723.56"/><line style="stroke:#61AFEF;stroke-width:1.0;" x1="613.79" x2="621.79" y1="726.56" y2="726.56"/><line style="stroke:#61AFEF;stroke-width:1.0;" x1="617.79" x2="617.79" y1="727.56" y2="719.56"/><line style="stroke:#61AFEF;stroke-width:1.0;" x1="621.79" x2="613.79" y1="782.96" y2="782.96"/><line style="stroke:#61AFEF;stroke-width:1.0;" x1="621.79" x2="613.79" y1="779.96" y2="779.96"/><line style="stroke:#61AFEF;stroke-width:1.0;" x1="617.79" x2="617.79" y1="778.96" y2="786.96"/></g><!--link Order to OrderStatus--><g id="link_Order_OrderStatus"><path codeLine="109" d="M367.79,735.66 C367.79,756.11 367.79,760.79 367.79,778.92 " fill="none" id="Order-OrderStatus" style="stroke:#61AFEF;stroke-width:1.0;stroke-dasharray:7.0,7.0;"/><line style="stroke:#61AFEF;stroke-width:1.0;" x1="363.79" x2="371.79" y1="731.66" y2="731.66"/><line style="stroke:#61AFEF;stroke-width:1.0;" x1="363.79" x2="371.79" y1="734.66" y2="734.66"/><line style="stroke:#61AFEF;stroke-width:1.0;" x1="367.79" x2="367.79" y1="735.66" y2="727.66"/><line style="stroke:#61AFEF;stroke-width:1.0;" x1="371.79" x2="363.79" y1="782.92" y2="782.92"/><line style="stroke:#61AFEF;stroke-width:1.0;" x1="371.79" x2="363.79" y1="779.92" y2="779.92"/><line style="stroke:#61AFEF;stroke-width:1.0;" x1="367.79" x2="367.79" y1="778.92" y2="786.92"/></g><!--link OrderProduct to Order--><g id="link_OrderProduct_Order"><path codeLine="110" d="M221.6,622.5 C232.88,622.5 228.56,622.5 240.2,622.5 " fill="none" id="OrderProduct-Order" style="stroke:#61AFEF;stroke-width:1.0;stroke-dasharray:7.0,7.0;"/><line style="stroke:#61AFEF;stroke-width:1.0;" x1="221.6" x2="213.6" y1="622.5" y2="628.5"/><line style="stroke:#61AFEF;stroke-width:1.0;" x1="221.6" x2="213.6" y1="622.5" y2="616.5"/><line style="stroke:#61AFEF;stroke-width:1.0;" x1="221.6" x2="213.6" y1="622.5" y2="622.5"/><line style="stroke:#61AFEF;stroke-width:1.0;" x1="223.6" x2="223.6" y1="626.5" y2="618.5"/><line style="stroke:#61AFEF;stroke-width:1.0;" x1="244.2" x2="244.2" y1="618.5" y2="626.5"/><line style="stroke:#61AFEF;stroke-width:1.0;" x1="241.2" x2="241.2" y1="618.5" y2="626.5"/><line style="stroke:#61AFEF;stroke-width:1.0;" x1="240.2" x2="248.2" y1="622.5" y2="622.5"/></g><!--SRC=[jLHDZvim4BtpAzphIe7kbSigIiYMAbzAikrXrODZZn8BiAbjiegM_U-r3IJ0ebMhPYzu_3p3l3TZpnV6ILfGG4UjSnK6WSGl_e7fOx4l54WYk0QkVIAo8CTQicH454u2mM54iKn6UOgvBh9qf8-GGN2wzx_wzu7R-Bd1FKybZETOuWpjCKaEKXIS4f4AYRJ4N9aZaw3jbZ8E-fm34b8VXUS1BpAqnkVC-6qrreL2hnv2wsWvZPUFrXh7KxDCnij9D8-iEHl7rdYhWrUIWXmCtKJRQFF3nKnMY_KysZbx4tsF9hlc3vhfCteorN31TuZH46rDBVZ1RI73BEqWELRgHSYk6ySPT00Y0MkWOnsYgJ5sB0E75paTm2caq4CVdBiJ5rRByozBNgGcaVrQ1sdM-CBaeQN8UWmh-YogjeQX-ngYLo9hAMX1z5zoeQ28PBbcWdUBBXandhDKO7tp-jOKmyxELVlES10a2Qkbeylv3gkoRoj-3rN5SLlHIgG6yofteSFsxJPuXIv0ANo0QzjlM93wAOQDyLxpXmrrmk81h5PIDzFzeUUMDrse4pZmTu5TwX35_6QDlmfoRHrMyWyaySdC2Bot3xDXAS6q-WJqatZNpVcF7ZJtgpDwFxvXUUMw03EuwQqdYD7cXd1P-jFLpwLVljPa7VfM-azhNvHkh7dD3UpxDZrfdPieS-hQx5Klre2R-F7RpkArUAyfv-M7PQykbz3ckFqiBuVpQBRha_a3]--></g></svg>